<?xml version="1.0" encoding="UTF-8" standalone="no"?>
<!-- Created with Inkscape (http://www.inkscape.org/) -->

<svg
   width="250"
   height="160"
   viewBox="0 0 66.145832 42.333333"
   version="1.1"
   id="svg1"
   xml:space="preserve"
   inkscape:version="1.4 (86a8ad7, 2024-10-11)"
   sodipodi:docname="Excel Foods.svg"
   inkscape:export-filename="Excel Foods Prefinal.png"
   inkscape:export-xdpi="400"
   inkscape:export-ydpi="400"
   xmlns:inkscape="http://www.inkscape.org/namespaces/inkscape"
   xmlns:sodipodi="http://sodipodi.sourceforge.net/DTD/sodipodi-0.dtd"
   xmlns="http://www.w3.org/2000/svg"
   xmlns:svg="http://www.w3.org/2000/svg"><sodipodi:namedview
     id="namedview1"
     pagecolor="#505050"
     bordercolor="#ffffff"
     borderopacity="1"
     inkscape:showpageshadow="0"
     inkscape:pageopacity="0"
     inkscape:pagecheckerboard="1"
     inkscape:deskcolor="#505050"
     inkscape:document-units="mm"
     showguides="true"
     inkscape:zoom="2.1442756"
     inkscape:cx="195.17081"
     inkscape:cy="183.97822"
     inkscape:window-width="1920"
     inkscape:window-height="1111"
     inkscape:window-x="-9"
     inkscape:window-y="-9"
     inkscape:window-maximized="1"
     inkscape:current-layer="layer1" /><defs
     id="defs1"><inkscape:path-effect
       effect="perspective-envelope"
       up_left_point="143.07912,83.196472"
       up_right_point="157.76246,78.309949"
       down_left_point="143.07912,99.297815"
       down_right_point="157.76246,99.297815"
       id="path-effect37"
       is_visible="true"
       lpeversion="1"
       deform_type="perspective"
       horizontal_mirror="false"
       vertical_mirror="false"
       overflow_perspective="false" /><inkscape:path-effect
       effect="perspective-envelope"
       up_left_point="128.95234,88.402356"
       up_right_point="142.06213,83.789718"
       down_left_point="128.95234,99.297815"
       down_right_point="142.06213,99.297815"
       id="path-effect36"
       is_visible="true"
       lpeversion="1"
       deform_type="perspective"
       horizontal_mirror="false"
       vertical_mirror="false"
       overflow_perspective="false" /><inkscape:path-effect
       effect="perspective-envelope"
       up_left_point="114.25246,89.18422"
       up_right_point="127.60927,88.644202"
       down_left_point="114.25246,99.298332"
       down_right_point="127.60927,99.298332"
       id="path-effect35"
       is_visible="true"
       lpeversion="1"
       deform_type="perspective"
       horizontal_mirror="false"
       vertical_mirror="false"
       overflow_perspective="false" /><inkscape:path-effect
       effect="perspective-envelope"
       up_left_point="98.973287,85.326575"
       up_right_point="112.94711,89.070532"
       down_left_point="98.973287,99.297815"
       down_right_point="112.94711,99.297815"
       id="path-effect34"
       is_visible="true"
       lpeversion="1"
       deform_type="perspective"
       horizontal_mirror="false"
       vertical_mirror="false"
       overflow_perspective="false" /><inkscape:path-effect
       effect="perspective-envelope"
       up_left_point="80.75321,78.310465"
       up_right_point="97.935107,84.810844"
       down_left_point="80.75321,99.297815"
       down_right_point="97.935107,99.297815"
       id="path-effect33"
       is_visible="true"
       lpeversion="1"
       deform_type="perspective"
       horizontal_mirror="false"
       vertical_mirror="false"
       overflow_perspective="false" /></defs><g
     inkscape:label="Layer 1"
     inkscape:groupmode="layer"
     id="layer1"><text
       xml:space="preserve"
       style="font-style:normal;font-variant:normal;font-weight:normal;font-stretch:normal;font-size:24.4701px;line-height:0.95;font-family:Roboto;-inkscape-font-specification:'Roboto, Normal';font-variant-ligatures:normal;font-variant-caps:normal;font-variant-numeric:normal;font-variant-east-asian:normal;text-align:center;letter-spacing:0px;word-spacing:0px;writing-mode:lr-tb;direction:ltr;text-anchor:middle;fill:#b79863;stroke-width:1.01618"
       x="-332.1521"
       y="207.53233"
       id="text3"><tspan
         sodipodi:role="line"
         id="tspan3"
         style="font-style:normal;font-variant:normal;font-weight:normal;font-stretch:normal;font-size:24.4701px;font-family:Roboto;-inkscape-font-specification:'Roboto, Normal';font-variant-ligatures:normal;font-variant-caps:normal;font-variant-numeric:normal;font-variant-east-asian:normal;letter-spacing:0px;stroke-width:1.01618"
         x="-332.1521"
         y="207.53233">EXCEL FOODS</tspan></text><g
       id="g4"
       transform="matrix(0.56635833,0,0,0.56635833,-136.53073,-7.1272455)"><g
         id="g35"
         transform="matrix(0.74450015,0,0,0.74450015,274.47108,-18.302007)"><path
           style="fill:#749d32;fill-opacity:1;stroke-width:0.340258"
           d="m 49.954269,89.084817 a 24.184547,24.184547 0 0 1 -32.733941,-0.03581 l -1.749937,1.749936 a 26.652359,26.652359 0 0 0 36.229795,0.03179 z"
           id="path22" /><path
           style="fill:#ffffff;stroke-width:0.340258"
           d="m 14.075266,53.205814 a 26.652359,26.652359 0 0 0 -10e-7,36.195811 l 1.750303,-1.750302 A 24.184547,24.184547 0 0 1 15.825202,54.95575 Z"
           id="path21" /><path
           style="fill:#9a5d41;fill-opacity:1;stroke-width:0.340258"
           d="m 53.063521,53.205813 -1.748476,1.748476 a 24.184547,24.184547 0 0 1 0.03545,32.734306 l 1.71303,1.71303 a 26.652359,26.652359 0 0 0 0,-36.195812 z"
           id="path20" /><path
           style="fill:#bf8b66;fill-opacity:1;stroke:#bf8b66;stroke-width:0.293;stroke-opacity:1"
           d="M 15.168303,69.835174 C 28.245174,73.779583 31.972316,81.619713 31.27077,91.305129 21.145653,86.841474 15.602594,78.238328 15.168303,69.835174 Z"
           id="path15"
           sodipodi:nodetypes="ccc" /><path
           style="fill:#9a5d41;fill-opacity:1;stroke:#9b5d45;stroke-width:0.293;stroke-opacity:1"
           d="M 51.978697,69.892953 C 38.901826,74.392619 35.112989,81.615797 35.135887,91.301213 45.225591,86.983634 50.551723,79.425044 51.978697,69.892953 Z"
           id="path16"
           sodipodi:nodetypes="ccc" /><path
           style="fill:#749d32;fill-opacity:1;stroke:#749d32;stroke-width:0.293;stroke-opacity:1"
           d="m 18.99341,54.596441 c 7.881039,3.364874 12.912877,9.00911 12.585835,18.940449 C 22.269737,69.171685 17.938478,62.910004 18.99341,54.596441 Z"
           id="path17"
           sodipodi:nodetypes="ccc" /><path
           style="fill:#749d32;fill-opacity:1;stroke:#749d32;stroke-width:0.293;stroke-opacity:1"
           d="M 35.589439,73.351804 C 35.336595,64.969978 38.702083,58.196298 48.792226,54.411355 49.154318,63.723777 44.101464,69.626789 35.589439,73.351804 Z"
           id="path18"
           sodipodi:nodetypes="ccc" /><circle
           style="fill:#749d32;fill-opacity:1;stroke:#749d32;stroke-width:0.312096;stroke-opacity:1"
           id="path19"
           cx="33.585293"
           cy="55.151695"
           r="3.8772545" /></g><g
         id="g3"
         transform="translate(194.4635,12.832617)"><path
           style="font-size:24.4701px;line-height:0.95;font-family:Roboto;-inkscape-font-specification:'Roboto, Normal';text-align:center;letter-spacing:0px;word-spacing:0px;text-anchor:middle;fill:#ffffff;stroke-width:0.756546"
           d="m 160.18326,58.836939 q 0,-0.453669 -0.14233,-0.800599 -0.13343,-0.355819 -0.48036,-0.640471 -0.33802,-0.284659 -0.94292,-0.542629 -0.596,-0.257969 -1.51224,-0.524835 -0.96071,-0.284652 -1.73462,-0.631582 -0.7739,-0.355819 -1.32543,-0.809487 -0.55151,-0.453669 -0.84507,-1.040774 -0.29355,-0.587106 -0.29355,-1.34322 0,-0.756122 0.31134,-1.396593 0.31135,-0.640479 0.88955,-1.111941 0.58711,-0.480359 1.39659,-0.747225 0.8095,-0.266866 1.80579,-0.266866 1.45886,0 2.47295,0.560422 1.02298,0.551519 1.55672,1.449967 0.53373,0.889551 0.53373,1.903634 h -1.70794 q 0,-0.729431 -0.31134,-1.289846 -0.31134,-0.569312 -0.94292,-0.889551 -0.63159,-0.329136 -1.6012,-0.329136 -0.91624,0 -1.51224,0.275763 -0.59599,0.275762 -0.88954,0.747225 -0.28466,0.471462 -0.28466,1.076353 0,0.409192 0.16902,0.747225 0.1779,0.329129 0.54262,0.613789 0.37361,0.284659 0.94292,0.524835 0.57821,0.240176 1.37881,0.462565 1.10304,0.311343 1.90363,0.693852 0.8006,0.382502 1.31654,0.862861 0.52484,0.471462 0.77391,1.076354 0.25797,0.596002 0.25797,1.352116 0,0.791701 -0.32024,1.43218 -0.32024,0.640479 -0.91624,1.094147 -0.596,0.453669 -1.43218,0.702741 -0.82728,0.240184 -1.85026,0.240184 -0.89845,0 -1.7702,-0.249073 -0.86287,-0.24908 -1.57451,-0.747225 -0.70274,-0.498145 -1.12972,-1.227576 -0.41809,-0.738329 -0.41809,-1.707943 h 1.70793 q 0,0.667169 0.25797,1.14752 0.25797,0.471462 0.70275,0.782805 0.45367,0.311342 1.02298,0.462565 0.57821,0.142334 1.20089,0.142334 0.89845,0 1.52114,-0.24908 0.62268,-0.249073 0.94292,-0.711638 0.32913,-0.462566 0.32913,-1.094147 z"
           id="path23" /><path
           style="font-size:24.4701px;line-height:0.95;font-family:Roboto;-inkscape-font-specification:'Roboto, Normal';text-align:center;letter-spacing:0px;word-spacing:0px;text-anchor:middle;fill:#ffffff;stroke-width:0.756546"
           d="m 144.82962,62.110483 h -2.70423 l 0.0178,-1.396593 h 2.68644 q 1.3877,0 2.31284,-0.578208 0.92513,-0.587105 1.38769,-1.636769 0.47146,-1.058567 0.47146,-2.472954 v -0.791701 q 0,-1.111934 -0.26686,-1.974802 -0.26687,-0.871757 -0.78281,-1.46776 -0.51594,-0.604891 -1.26315,-0.916234 -0.73833,-0.311342 -1.69905,-0.311342 h -2.91773 v -1.40549 h 2.91773 q 1.27206,0 2.32173,0.426986 1.04966,0.418089 1.80579,1.21868 0.76501,0.791701 1.1742,1.921435 0.4092,1.120831 0.4092,2.52632 v 0.773908 q 0,1.40549 -0.4092,2.535217 -0.40919,1.120837 -1.1831,1.912539 -0.76501,0.791694 -1.85026,1.218679 -1.07636,0.418089 -2.42848,0.418089 z M 143.04163,49.15863 V 62.110483 H 141.3248 V 49.15863 Z"
           id="path24" /><path
           style="font-size:24.4701px;line-height:0.95;font-family:Roboto;-inkscape-font-specification:'Roboto, Normal';text-align:center;letter-spacing:0px;word-spacing:0px;text-anchor:middle;fill:#ffffff;stroke-width:0.756546"
           d="m 138.76289,55.225361 v 0.818392 q 0,1.458863 -0.36472,2.61528 -0.36471,1.15641 -1.04967,1.965905 -0.68495,0.809487 -1.64567,1.236473 -0.95181,0.426986 -2.13492,0.426986 -1.14751,0 -2.10823,-0.426986 -0.95182,-0.426986 -1.65456,-1.236473 -0.69386,-0.809495 -1.07636,-1.965905 -0.38251,-1.156417 -0.38251,-2.61528 v -0.818392 q 0,-1.458856 0.37362,-2.606376 0.38251,-1.156417 1.07635,-1.965912 0.69385,-0.818385 1.64567,-1.24537 0.96071,-0.426986 2.10823,-0.426986 1.1831,0 2.13492,0.426986 0.96072,0.426985 1.64567,1.24537 0.69385,0.809495 1.05857,1.965912 0.37361,1.14752 0.37361,2.606376 z m -1.69905,0.818392 v -0.836178 q 0,-1.156417 -0.24017,-2.045969 -0.23129,-0.889551 -0.68496,-1.494442 -0.45367,-0.604899 -1.11194,-0.916242 -0.64937,-0.311342 -1.47665,-0.311342 -0.80059,0 -1.44996,0.311342 -0.64048,0.311343 -1.10305,0.916242 -0.45367,0.604891 -0.70274,1.494442 -0.24908,0.889552 -0.24908,2.045969 v 0.836178 q 0,1.165306 0.24908,2.063754 0.24907,0.889551 0.71164,1.503339 0.47146,0.604899 1.11194,0.916242 0.64937,0.311342 1.44996,0.311342 0.83618,0 1.48555,-0.311342 0.64937,-0.311343 1.09415,-0.916242 0.45367,-0.613788 0.68496,-1.503339 0.23127,-0.898448 0.23127,-2.063754 z"
           id="path25" /><path
           style="font-size:24.4701px;line-height:0.95;font-family:Roboto;-inkscape-font-specification:'Roboto, Normal';text-align:center;letter-spacing:0px;word-spacing:0px;text-anchor:middle;fill:#ffffff;stroke-width:0.756546"
           d="m 126.22913,55.225361 v 0.818392 q 0,1.458863 -0.36472,2.61528 -0.36472,1.15641 -1.04967,1.965905 -0.68496,0.809487 -1.64567,1.236473 -0.95182,0.426986 -2.13492,0.426986 -1.14753,0 -2.10824,-0.426986 -0.95182,-0.426986 -1.65456,-1.236473 -0.69385,-0.809495 -1.07636,-1.965905 -0.3825,-1.156417 -0.3825,-2.61528 v -0.818392 q 0,-1.458856 0.37361,-2.606376 0.3825,-1.156417 1.07636,-1.965912 0.69385,-0.818385 1.64566,-1.24537 0.96072,-0.426986 2.10824,-0.426986 1.1831,0 2.13492,0.426986 0.96071,0.426985 1.64567,1.24537 0.69385,0.809495 1.05856,1.965912 0.37362,1.14752 0.37362,2.606376 z m -1.69905,0.818392 v -0.836178 q 0,-1.156417 -0.24018,-2.045969 -0.23128,-0.889551 -0.68495,-1.494442 -0.45367,-0.604899 -1.11194,-0.916242 -0.64937,-0.311342 -1.47665,-0.311342 -0.8006,0 -1.44997,0.311342 -0.64048,0.311343 -1.10304,0.916242 -0.45368,0.604891 -0.70275,1.494442 -0.24907,0.889552 -0.24907,2.045969 v 0.836178 q 0,1.165306 0.24907,2.063754 0.24907,0.889551 0.71165,1.503339 0.47145,0.604899 1.11193,0.916242 0.64937,0.311342 1.44997,0.311342 0.83617,0 1.48555,-0.311342 0.64937,-0.311343 1.09415,-0.916242 0.45366,-0.613788 0.68495,-1.503339 0.23128,-0.898448 0.23128,-2.063754 z"
           id="path26" /><path
           style="font-size:24.4701px;line-height:0.95;font-family:Roboto;-inkscape-font-specification:'Roboto, Normal';text-align:center;letter-spacing:0px;word-spacing:0px;text-anchor:middle;fill:#ffffff;stroke-width:0.756546"
           d="m 107.90438,49.15863 v 12.951853 h -1.71683 V 49.15863 Z m 5.42626,5.826555 v 1.40549 h -5.79987 v -1.40549 z m 0.88065,-5.826555 v 1.40549 h -6.68052 v -1.40549 z"
           id="path27" /><path
           style="font-size:24.4701px;line-height:0.95;font-family:Roboto;-inkscape-font-specification:'Roboto, Normal';text-align:center;letter-spacing:0px;word-spacing:0px;text-anchor:middle;fill:#ffffff;stroke-width:0.756546"
           d="m 99.711624,60.71389 v 1.396593 H 93.235693 V 60.71389 Z M 93.573726,49.15863 V 62.110483 H 91.856894 V 49.15863 Z"
           id="path28" /><path
           style="font-size:24.4701px;line-height:0.95;font-family:Roboto;-inkscape-font-specification:'Roboto, Normal';text-align:center;letter-spacing:0px;word-spacing:0px;text-anchor:middle;fill:#ffffff;stroke-width:0.756546"
           d="m 89.73087,60.71389 v 1.396593 H 82.872438 V 60.71389 Z M 83.21936,49.15863 V 62.110483 H 81.502528 V 49.15863 Z m 5.604165,5.568586 v 1.396593 H 82.87243 v -1.396593 z m 0.818392,-5.568586 v 1.40549 h -6.769479 v -1.40549 z"
           id="path29" /><path
           style="font-size:24.4701px;line-height:0.95;font-family:Roboto;-inkscape-font-specification:'Roboto, Normal';text-align:center;letter-spacing:0px;word-spacing:0px;text-anchor:middle;fill:#ffffff;stroke-width:0.756546"
           d="m 77.463972,57.991864 h 1.707935 q -0.133437,1.227584 -0.702749,2.197191 -0.569311,0.969615 -1.610085,1.538927 -1.040774,0.560415 -2.597487,0.560415 -1.138624,0 -2.072651,-0.426986 -0.925131,-0.426986 -1.592293,-1.209791 -0.667168,-0.791701 -1.031884,-1.894738 -0.355819,-1.11194 -0.355819,-2.472954 v -1.289846 q 0,-1.361013 0.355819,-2.464057 0.364716,-1.111934 1.040774,-1.903635 0.684955,-0.791702 1.645673,-1.218687 0.96071,-0.426986 2.161604,-0.426986 1.46776,0 2.481851,0.551526 1.014083,0.551518 1.574498,1.530022 0.569312,0.969615 0.702749,2.250564 h -1.707935 q -0.12454,-0.907337 -0.462566,-1.556712 -0.338033,-0.658265 -0.960718,-1.014084 -0.622685,-0.355826 -1.627879,-0.355826 -0.862861,0 -1.521133,0.329136 -0.649368,0.329136 -1.094147,0.934027 -0.435875,0.604899 -0.658265,1.449967 -0.22239,0.845074 -0.22239,1.876951 v 1.30764 q 0,0.951822 0.195707,1.787999 0.204596,0.836178 0.613788,1.46776 0.409193,0.631575 1.040774,0.99629 0.631582,0.355827 1.494443,0.355827 1.094147,0 1.743523,-0.34693 0.649368,-0.346922 0.978504,-0.996297 0.338025,-0.649368 0.480359,-1.556713 z"
           id="path30" /><path
           style="font-size:24.4701px;line-height:0.95;font-family:Roboto;-inkscape-font-specification:'Roboto, Normal';text-align:center;letter-spacing:0px;word-spacing:0px;text-anchor:middle;fill:#749d32;fill-opacity:1;stroke-width:0.756546"
           d="m 59.557321,49.15863 3.113425,4.963694 5.92337,-10.180183 H 70.5956 l -6.901874,11.63015 4.189787,6.538192 H 65.864227 L 62.670746,57.04894 56.765162,67.326973 H 54.745884 L 61.647758,55.572291 57.555829,49.15863 Z"
           id="path31"
           sodipodi:nodetypes="ccccccccccccc" /><path
           style="font-size:24.4701px;line-height:0.95;font-family:Roboto;-inkscape-font-specification:'Roboto, Normal';text-align:center;letter-spacing:0px;word-spacing:0px;text-anchor:middle;fill:#ffffff;stroke-width:0.756546"
           d="m 56.319356,60.71389 v 1.396593 h -6.85844 V 60.71389 Z M 49.807846,49.15863 V 62.110483 H 48.091013 V 49.15863 Z m 5.604165,5.568586 v 1.396593 h -5.951095 v -1.396593 z m 0.818384,-5.568586 v 1.40549 h -6.769479 v -1.40549 z"
           id="path32" /></g></g></g></svg>
