<?xml version="1.0" encoding="UTF-8" standalone="no"?>
<!-- Created with Inkscape (http://www.inkscape.org/) -->

<svg
   width="250"
   height="160"
   viewBox="0 0 66.145832 42.333332"
   version="1.1"
   id="svg1"
   inkscape:version="1.4 (86a8ad7, 2024-10-11)"
   sodipodi:docname="Molapo Logo.svg"
   inkscape:export-filename="Logo Design\Molapo Typeface Logo.png"
   inkscape:export-xdpi="400"
   inkscape:export-ydpi="400"
   xmlns:inkscape="http://www.inkscape.org/namespaces/inkscape"
   xmlns:sodipodi="http://sodipodi.sourceforge.net/DTD/sodipodi-0.dtd"
   xmlns:xlink="http://www.w3.org/1999/xlink"
   xmlns="http://www.w3.org/2000/svg"
   xmlns:svg="http://www.w3.org/2000/svg">
  <sodipodi:namedview
     id="namedview1"
     pagecolor="#505050"
     bordercolor="#ffffff"
     borderopacity="1"
     inkscape:showpageshadow="0"
     inkscape:pageopacity="0"
     inkscape:pagecheckerboard="1"
     inkscape:deskcolor="#505050"
     inkscape:document-units="mm"
     inkscape:zoom="2.1997092"
     inkscape:cx="177.52347"
     inkscape:cy="11.137836"
     inkscape:window-width="1920"
     inkscape:window-height="1111"
     inkscape:window-x="-9"
     inkscape:window-y="-9"
     inkscape:window-maximized="1"
     inkscape:current-layer="layer1" />
  <defs
     id="defs1">
    <linearGradient
       id="linearGradient11"
       inkscape:collect="always">
      <stop
         style="stop-color:#d4aa00;stop-opacity:1"
         offset="0"
         id="stop11" />
      <stop
         style="stop-color:#ffeeaa;stop-opacity:1"
         offset="0.50220037"
         id="stop13" />
      <stop
         style="stop-color:#d4aa00;stop-opacity:1"
         offset="1"
         id="stop12" />
    </linearGradient>
    <linearGradient
       inkscape:collect="always"
       xlink:href="#linearGradient11"
       id="linearGradient78"
       gradientUnits="userSpaceOnUse"
       x1="64.696251"
       y1="159.10716"
       x2="83.720032"
       y2="159.10716" />
    <linearGradient
       inkscape:collect="always"
       xlink:href="#linearGradient11"
       id="linearGradient79"
       gradientUnits="userSpaceOnUse"
       x1="64.696251"
       y1="159.10716"
       x2="83.720032"
       y2="159.10716" />
    <linearGradient
       inkscape:collect="always"
       xlink:href="#linearGradient11"
       id="linearGradient80"
       gradientUnits="userSpaceOnUse"
       x1="64.696251"
       y1="159.10716"
       x2="83.720032"
       y2="159.10716" />
    <linearGradient
       inkscape:collect="always"
       xlink:href="#linearGradient11"
       id="linearGradient81"
       gradientUnits="userSpaceOnUse"
       x1="64.696251"
       y1="159.10716"
       x2="83.720032"
       y2="159.10716" />
    <linearGradient
       inkscape:collect="always"
       xlink:href="#linearGradient11"
       id="linearGradient2"
       x1="13.000503"
       y1="32.038448"
       x2="53.145226"
       y2="32.038448"
       gradientUnits="userSpaceOnUse" />
    <linearGradient
       inkscape:collect="always"
       xlink:href="#linearGradient11"
       id="linearGradient3"
       x1="12.993963"
       y1="39.814026"
       x2="53.119011"
       y2="39.814026"
       gradientUnits="userSpaceOnUse" />
  </defs>
  <g
     inkscape:label="Layer 1"
     inkscape:groupmode="layer"
     id="layer1">
    <g
       id="g36"
       style="fill:url(#linearGradient81)"
       transform="matrix(0.44996512,0,0,0.44996512,-0.31811762,-59.419505)">
      <rect
         style="fill:url(#linearGradient78);stroke:none;stroke-width:0.148557"
         id="rect17"
         width="3.7648168"
         height="8.895607"
         x="72.325737"
         y="154.65935"
         ry="1.6406461" />
      <rect
         style="fill:url(#linearGradient79);stroke:none;stroke-width:0.214712"
         id="rect18"
         width="3.7648144"
         height="18.582106"
         x="64.696251"
         y="149.81612"
         ry="1.8824072" />
      <rect
         style="fill:url(#linearGradient80);stroke:none;stroke-width:0.214712"
         id="rect36"
         width="3.7648144"
         height="18.582106"
         x="79.955215"
         y="149.81612"
         ry="1.8824072" />
    </g>
    <g
       id="g73"
       style="fill:#00002b;fill-opacity:1"
       transform="matrix(0.44996512,0,0,0.44996512,-0.31811762,-59.419505)">
      <path
         id="path47"
         style="fill:#00002b;fill-opacity:1;stroke:none;stroke-width:0.350585"
         d="m 95.214372,154.47824 v 9.25787 l 3.149922,-3.14992 c 0.409674,-0.40967 0.614654,-0.94458 0.614654,-1.47923 0,-0.53464 -0.20498,-1.06913 -0.614654,-1.4788 z" />
      <g
         id="g72"
         style="fill:#00002b;fill-opacity:1">
        <path
           id="path48"
           style="fill:#00002b;fill-opacity:1;stroke:none;stroke-width:0.350585"
           d="m 73.966378,164.42235 c -0.908919,0 -1.640621,0.7317 -1.640621,1.64062 v 5.61445 10.30333 c 0,1.05113 0.839643,1.89732 1.882497,1.89732 1.042861,0 1.882505,-0.84619 1.882505,-1.89732 v -10.30333 -5.61445 c 0,-0.90892 -0.732129,-1.64062 -1.641047,-1.64062 z m 2.115905,7.42324 c -0.01115,0.11058 -0.03336,0.2178 -0.06525,0.32067 0.03189,-0.10287 0.0541,-0.21009 0.06525,-0.32067 z m -0.120303,0.47148 c -0.0414,0.0982 -0.09193,0.19147 -0.150804,0.27873 0.05886,-0.0873 0.1094,-0.18053 0.150804,-0.27873 z" />
        <path
           id="path49"
           style="fill:#00002b;fill-opacity:1;stroke:none;stroke-width:0.350585"
           d="m 74.208254,134.33628 c -1.042854,0 -1.882497,0.84619 -1.882497,1.89732 v 10.30333 5.61403 c 0,0.90892 0.731702,1.64104 1.640621,1.64104 h 0.483334 c 0.908918,0 1.641047,-0.73212 1.641047,-1.64104 v -5.61403 -10.30333 c 0,-1.05113 -0.839644,-1.89732 -1.882505,-1.89732 z m 1.633842,11.33311 c 0.03623,0.0581 0.06861,0.11858 0.09743,0.1813 -0.02877,-0.0627 -0.06123,-0.12318 -0.09743,-0.1813 z m 0.174953,0.3787 c 0.03189,0.10287 0.0541,0.21009 0.06525,0.32067 -0.01115,-0.11058 -0.03336,-0.2178 -0.06525,-0.32067 z" />
        <path
           id="path50"
           style="fill:#00002b;fill-opacity:1;stroke:none;stroke-width:0.350585"
           d="m 60.831679,146.84828 -3.764994,3.76499 v 16.98781 l 3.764994,3.76499 z" />
        <path
           id="path51"
           style="fill:#00002b;fill-opacity:1;stroke:none;stroke-width:0.350585"
           d="m 53.202144,154.47782 -3.150349,3.15034 c -0.409674,0.40967 -0.614646,0.94416 -0.614646,1.4788 0,0.53465 0.204972,1.06956 0.614646,1.47923 l 3.150349,3.15035 z" />
        <path
           id="path52"
           style="fill:#00002b;fill-opacity:1;stroke:none;stroke-width:0.350585"
           d="m 87.584836,146.8487 v 24.51695 l 3.764568,-3.76457 v -16.98781 z" />
        <path
           style="fill:#00002b;fill-opacity:1;stroke:none;stroke-width:0.350585"
           d="m 95.214372,157.22489 v 3.76457 h 1.86725 c 1.051125,0 1.897326,-0.83964 1.897326,-1.8825 0,-1.04285 -0.846201,-1.88207 -1.897326,-1.88207 z"
           id="path53" />
        <path
           style="fill:#00002b;fill-opacity:1;stroke:none;stroke-width:0.350585"
           d="m 51.334467,157.22489 c -1.051124,0 -1.897318,0.83922 -1.897318,1.88207 0,1.04286 0.846194,1.8825 1.897318,1.8825 h 1.867677 v -3.76457 z"
           id="path54" />
        <g
           id="g70"
           transform="matrix(0.81972441,0,0,0.81972441,-56.188169,91.720835)"
           style="fill:#00002b;fill-opacity:1">
          <path
             id="path55"
             style="fill:#00002b;fill-opacity:1;stroke:none;stroke-width:0.426"
             d="m 148.49688,-66.552044 v 6.495485 l 3.52143,3.521433 c 0.89958,0.899581 2.34816,0.899581 3.24775,0 0.89958,-0.899582 0.89958,-2.348161 0,-3.247743 z"
             transform="rotate(45)" />
          <path
             id="path68"
             style="fill:#00002b;fill-opacity:1;stroke:none;stroke-width:0.426"
             d="m 152.06255,106.46834 -4.593,-4.59301 v -4.980052 c 0,-1.272199 1.0243,-2.296499 2.2965,-2.296506 1.2722,2e-6 2.2965,1.024302 2.29651,2.296501 z" />
        </g>
        <g
           id="g71"
           transform="matrix(-0.81972441,0,0,0.81972441,204.60447,91.720835)"
           style="fill:#00002b;fill-opacity:1">
          <path
             id="path70"
             style="fill:#00002b;fill-opacity:1;stroke:none;stroke-width:0.426"
             d="m 148.49688,-66.552044 v 6.495485 l 3.52143,3.521433 c 0.89958,0.899581 2.34816,0.899581 3.24775,0 0.89958,-0.899582 0.89958,-2.348161 0,-3.247743 z"
             transform="rotate(45)" />
          <path
             id="path71"
             style="fill:#00002b;fill-opacity:1;stroke:none;stroke-width:0.426"
             d="m 152.06255,106.46834 -4.593,-4.59301 v -4.980052 c 0,-1.272199 1.0243,-2.296499 2.2965,-2.296506 1.2722,2e-6 2.2965,1.024302 2.29651,2.296501 z" />
        </g>
      </g>
    </g>
    <text
       xml:space="preserve"
       style="font-style:normal;font-variant:normal;font-weight:normal;font-stretch:normal;font-size:11.366px;line-height:1.15;font-family:Company;-inkscape-font-specification:'Company, Normal';font-variant-ligatures:normal;font-variant-caps:normal;font-variant-numeric:normal;font-variant-east-asian:normal;text-align:start;letter-spacing:0px;word-spacing:0px;writing-mode:lr-tb;direction:ltr;text-anchor:start;fill:url(#linearGradient2);stroke:none;stroke-width:0.447172"
       x="12.625425"
       y="35.07317"
       id="text73"><tspan
         sodipodi:role="line"
         id="tspan73"
         style="font-style:normal;font-variant:normal;font-weight:normal;font-stretch:normal;font-size:11.366px;font-family:Company;-inkscape-font-specification:'Company, Normal';font-variant-ligatures:normal;font-variant-caps:normal;font-variant-numeric:normal;font-variant-east-asian:normal;text-align:start;text-anchor:start;fill:url(#linearGradient2);stroke-width:0.447172"
         x="12.625425"
         y="35.07317">molapo</tspan></text>
    <text
       xml:space="preserve"
       style="font-style:normal;font-variant:normal;font-weight:normal;font-stretch:normal;font-size:3.97042px;line-height:1.15;font-family:TimeBurner;-inkscape-font-specification:'TimeBurner, Normal';font-variant-ligatures:normal;font-variant-caps:normal;font-variant-numeric:normal;font-variant-east-asian:normal;text-align:start;letter-spacing:0px;word-spacing:0px;writing-mode:lr-tb;direction:ltr;text-anchor:start;fill:url(#linearGradient3);stroke:none;stroke-width:0.447395"
       x="12.997933"
       y="41.283081"
       id="text74"
       transform="scale(1.0004977,0.99950255)"><tspan
         sodipodi:role="line"
         id="tspan74"
         style="font-style:normal;font-variant:normal;font-weight:normal;font-stretch:normal;font-size:3.97042px;font-family:TimeBurner;-inkscape-font-specification:'TimeBurner, Normal';font-variant-ligatures:normal;font-variant-caps:normal;font-variant-numeric:normal;font-variant-east-asian:normal;text-align:start;text-anchor:start;fill:url(#linearGradient3);stroke-width:0.447395"
         x="12.997933"
         y="41.283081">accountants &amp; advisors</tspan></text>
  </g>
</svg>
